<svg width="32" height="32" viewBox="0 0 32 32" fill="none" xmlns="http://www.w3.org/2000/svg">
<path fill-rule="evenodd" clip-rule="evenodd" d="M14.4775 17.5284C12.9175 15.9684 11.7415 14.2218 10.9601 12.4498C10.7948 12.0751 10.8921 11.6364 11.1815 11.3471L12.2735 10.2564C13.1681 9.36175 13.1681 8.09642 12.3868 7.31508L10.8215 5.74975C9.78013 4.70842 8.09213 4.70842 7.0508 5.74975L6.18147 6.61908C5.19347 7.60708 4.78147 9.03242 5.04813 10.4458C5.7068 13.9298 7.7308 17.7444 10.9961 21.0098C14.2615 24.2751 18.0761 26.2991 21.5601 26.9578C22.9735 27.2244 24.3988 26.8124 25.3868 25.8244L26.2548 24.9564C27.2961 23.9151 27.2961 22.2271 26.2548 21.1858L24.6908 19.6217C23.9095 18.8404 22.6428 18.8404 21.8628 19.6217L20.6588 20.8271C20.3695 21.1164 19.9308 21.2138 19.5561 21.0484C17.7841 20.2657 16.0375 19.0884 14.4775 17.5284Z" fill="white"/>
</svg>
