<svg width="100" height="100" viewBox="0 0 100 100" fill="none" xmlns="http://www.w3.org/2000/svg">
<path d="M16.0938 63.9062C12.5 63.9062 9.375 67.0312 9.375 70.625C9.375 74.375 12.5 77.3437 16.25 77.3437C20 77.3437 22.9688 74.2187 22.9688 70.4687C22.8125 67.0312 19.8438 63.9062 16.0938 63.9062ZM16.0938 73.9062C14.375 73.9062 12.9688 72.6562 12.9688 70.7812C12.9688 69.0625 14.375 67.6562 16.0938 67.6562C17.8125 67.6562 19.2188 68.9062 19.2188 70.7812C19.2188 72.5 17.9688 73.9062 16.0938 73.9062ZM53.2812 63.9062C49.6875 63.9062 46.5625 67.0312 46.5625 70.625C46.5625 74.375 49.6875 77.3437 53.4375 77.3437C57.1875 77.3437 60.1562 74.2187 60.1562 70.4687C60 67.0312 56.875 63.9062 53.2812 63.9062ZM53.2812 73.9062C51.5625 73.9062 50.1562 72.6562 50.1562 70.7812C50.1562 69.0625 51.5625 67.6562 53.2812 67.6562C55 67.6562 56.4062 68.9062 56.4062 70.7812C56.4062 72.5 55 73.9062 53.2812 73.9062ZM73.4375 63.9062C69.8438 63.9062 66.7188 67.0312 66.7188 70.625C66.7188 74.375 69.8437 77.3437 73.5938 77.3437C77.3438 77.3437 80.3125 74.2187 80.3125 70.4687C80.1562 67.0312 77.0312 63.9062 73.4375 63.9062ZM73.4375 73.9062C71.7188 73.9062 70.3125 72.6562 70.3125 70.7812C70.3125 69.0625 71.7188 67.6562 73.4375 67.6562C75.1562 67.6562 76.5625 68.9062 76.5625 70.7812C76.5625 72.5 75.1562 73.9062 73.4375 73.9062Z" fill="#F38E30"/>
<path d="M88.4375 57.0312C88.125 56.875 87.8125 56.875 87.5 56.875H40.4687L33.2812 34.6875L32.5 32.0312C32.0312 31.7187 31.25 31.5625 30 31.5625H27.3437C23.75 31.5625 20.3125 31.5625 16.7187 31.7187C16.4062 31.7187 16.0937 31.875 15.7812 32.0312C15.3125 32.3437 14.8437 32.8125 14.6875 33.125C13.4375 35.7812 12.1875 38.4375 11.0937 41.0937C9.53125 44.5312 7.5 47.1875 4.21875 48.4375C3.125 48.9062 2.5 49.8437 2.5 50.9375V68.4375C2.5 69.6875 3.4375 70.625 4.6875 70.625H7.1875C7.1875 65.7812 11.0937 61.875 15.9375 61.875C20.7812 61.875 24.6875 65.7812 24.6875 70.625H44.5312C44.5312 65.7812 48.4375 61.875 53.2812 61.875C58.125 61.875 62.0312 65.7812 62.0312 70.625H64.8437C64.8437 66.25 68.125 62.6562 72.3437 62.0312C72.8125 62.0312 73.125 61.875 73.5937 61.875C78.4375 61.875 82.3438 65.7812 82.3438 70.625H87.5C88.5937 70.625 89.5312 69.8438 89.6875 68.75V58.75C89.6875 58.125 89.2187 57.3437 88.4375 57.0312ZM30 45.3125C30 45.9375 29.5312 46.4062 28.9062 46.4062H13.9062C13.125 46.4062 12.6562 45.625 12.9688 45C13.9062 42.6562 14.8437 40.4687 15.7812 38.125C16.0937 37.1875 16.5625 36.4062 16.875 35.4688V35.1562C17.0312 35 17.3437 34.6875 17.5 34.6875H28.5937C29.2187 34.6875 29.6875 35.1562 29.6875 35.7812V45.3125H30Z" fill="#324254"/>
<path d="M97.1869 41.7188L85.1556 53.5937C84.9994 53.75 84.8431 53.9062 84.5306 53.9062L42.8119 53.75C42.4994 53.75 42.0306 53.4375 42.0306 53.125L36.8744 37.0313L35.3119 32.3438C35.1556 31.7188 35.6244 31.25 36.0931 31.25H91.8744C92.1869 31.25 92.4994 31.4062 92.6557 31.7187L97.0306 40.7813C97.4994 41.0938 97.3432 41.4063 97.1869 41.7188Z" fill="#324254"/>
<path d="M35.6233 28.5937C35.467 28.5937 35.467 28.5937 35.6233 28.5937C35.467 28.125 35.467 27.8125 35.3108 27.3438C35.1545 26.875 35.1545 26.4063 34.9983 25.9375C34.9983 25.625 34.6858 25.1563 34.9983 25H35.9358C36.8733 25 37.8108 24.8438 38.7483 24.8438C38.9045 24.8438 39.0608 24.6875 39.0608 24.5313V22.5C39.0608 22.5 39.0608 22.3438 39.217 22.3438C40.6233 22.3438 42.0295 22.8125 43.1233 23.5938C43.2795 23.75 43.4358 23.5938 43.592 23.4375C44.0608 22.3438 46.2483 22.0312 47.6545 22.5C49.217 22.9687 50.7795 23.9063 52.4983 23.9063C54.5295 23.75 56.717 22.1875 58.4358 23.2812C59.0608 23.5938 59.217 24.2188 59.842 24.5313C61.2483 25.625 63.592 25.3125 65.467 24.6875C67.342 24.0625 69.5295 23.4375 71.2483 24.375C72.0295 24.6875 72.4983 25.3125 73.4358 25.4687C74.217 25.625 74.842 25.3125 75.467 25L81.092 22.6563C81.5608 22.5 82.0295 22.6563 82.342 22.9688C82.8108 23.75 83.592 24.375 84.3733 24.8438C84.5295 25 84.6858 24.8438 84.842 24.6875C85.1545 23.2813 88.1233 22.8125 89.6858 23.9063C91.2483 25.1563 91.4045 27.0312 91.4045 28.75H36.092L35.6233 28.5937Z" fill="#F38E30"/>
</svg>
