<svg width="100" height="100" viewBox="0 0 100 100" fill="none" xmlns="http://www.w3.org/2000/svg">
<path d="M39.376 63.5942C39.2197 64.5317 38.751 65.7817 37.9697 66.7192C37.8135 67.0317 37.501 67.3442 37.3447 67.6567C37.0322 68.1254 36.5635 68.4379 36.251 68.7504C34.8447 70.0004 33.2822 70.4692 32.1885 69.6879C30.9385 68.9067 30.9385 66.7192 32.0322 64.5317L32.1885 64.3754C32.3447 64.0629 32.6572 63.5942 32.8135 63.2817C33.2822 62.6567 33.751 62.1879 34.2197 61.7192C35.7822 60.1567 37.501 59.5317 38.751 60.3129C39.5322 60.7817 39.6885 62.0317 39.376 63.5942Z" fill="#F38E30"/>
<path d="M32.8125 60.6262C32.6563 61.095 32.3438 61.5637 32.0313 62.0325C31.7188 62.6575 31.25 63.1262 30.7813 63.4387V63.595C29.375 64.845 27.9688 65.3137 27.0312 64.6887C26.5625 64.3762 26.25 63.7512 26.25 63.1262V62.97C26.25 62.345 26.4063 61.72 26.5625 60.9387C26.7188 60.47 27.0313 59.845 27.3438 59.3762C27.5 59.22 27.6563 58.9075 27.6563 58.7512C28.9063 57.0325 30.625 56.095 31.875 56.2512H32.0313C32.1875 56.2512 32.1875 56.2512 32.3438 56.4075C32.3438 56.4075 32.5 56.4075 32.5 56.5637C32.6562 56.5637 32.6563 56.72 32.6563 56.72C33.5938 57.345 33.5938 58.9075 32.8125 60.6262Z" fill="#F38E30"/>
<path d="M48.4394 74.2179C48.4394 74.3741 48.2832 74.3741 48.2832 74.5304C46.8769 76.5616 45.0019 77.6554 43.9082 76.8741C43.1269 76.2491 42.9707 74.8429 43.7519 73.1241C43.9082 72.6554 44.2207 72.3429 44.3769 71.8741C44.8457 71.0929 45.6269 70.4679 46.2519 69.9991C47.1894 69.3741 48.1269 69.0616 48.9082 69.5304C49.6894 70.1554 49.5332 72.3429 48.4394 74.2179Z" fill="#F38E30"/>
<path d="M45.9375 66.5605C45.7812 67.3418 45.3125 68.123 44.8438 68.9043C44.6875 69.2168 44.5312 69.5293 44.2187 69.8418C43.9062 70.3105 43.4375 70.7793 43.125 71.248L42.1875 72.1855C40.625 73.5918 38.9062 74.2168 37.9687 73.5918C37.0312 72.9668 36.875 71.4043 37.5 69.6855C37.6563 69.2168 37.8125 68.748 38.125 68.123C38.4375 67.498 38.75 67.0293 39.0625 66.4043C39.5313 65.623 40.1563 64.998 40.7813 64.373C41.25 63.9043 41.7188 63.4356 42.1875 63.1231C43.4375 62.3418 44.5313 62.1855 45.3125 62.6543C46.4062 63.2793 46.4062 64.8418 45.9375 66.5605Z" fill="#F38E30"/>
<path d="M32.3438 62.345C30.9375 64.845 28.5938 66.095 27.1875 65.3137C26.5625 65.0012 26.25 64.22 26.25 63.2825V63.1262C26.25 62.0325 26.5625 60.7825 27.3438 59.3762C27.5 59.22 27.6563 58.9075 27.6563 58.7512C28.9063 57.0325 30.4688 56.095 31.875 56.2512H32.0313C32.1875 56.2512 32.1875 56.2512 32.3438 56.4075C32.3438 56.4075 32.5 56.4075 32.5 56.5637C32.6562 56.5637 32.6563 56.72 32.6563 56.72C33.9063 57.5012 33.75 60.0012 32.3438 62.345Z" fill="#F38E30"/>
<path d="M80.9375 57.3438C80 59.8438 77.3438 61.0938 74.5312 60.4688C74.375 60.4688 74.2188 60.4687 73.9062 60.3125C74.0625 62.8125 73.125 64.6875 70.9375 65.7812C68.75 66.875 66.875 66.5625 64.8438 65.1562C64.8438 67.8125 63.9063 69.8438 61.5625 70.7812C59.2188 71.7188 57.0312 70.9375 55 69.375C54.8438 69.8438 54.8437 70 54.8437 70.1563C54.375 72.1875 52.8125 73.5938 51.0938 74.0625C52.3438 71.25 51.875 68.5937 50 67.3437C49.5312 67.0312 48.9062 66.875 48.2812 66.7188C49.0625 63.9062 48.4375 61.7188 46.7188 60.4688C45.3125 59.5312 43.5938 59.5312 41.7188 60.4688C41.4063 59.375 40.7812 58.5937 40 57.9687C38.9062 57.1875 37.3438 57.0312 35.9375 57.5C35.7812 56.25 35.3125 55.3125 34.375 54.5313L34.0625 54.2188L33.5938 53.9062C33.4375 53.9062 33.2813 53.75 33.125 53.75H32.9688C32.8125 53.75 32.6562 53.5937 32.6562 53.5937C32.5 53.5937 32.1875 53.4375 32.0312 53.4375C29.8438 53.125 27.3437 54.5312 25.4687 57.0312C25.3125 57.3438 25.1562 57.5 25 57.8125L24.8437 57.9687C24.0625 59.375 23.5938 60.7812 23.4375 62.0312L22.3438 61.0937L19.375 58.2812L12.6563 52.0312L12.3438 51.5625C11.875 51.0938 11.7188 50.3125 11.7188 49.6875L11.875 48.9062L15.4687 32.9688C15.625 32.0313 15.7813 30.9375 16.5625 30.3125C17.3438 29.6875 18.5938 30 19.5312 30.1562C20.4688 30.3125 21.25 30.3125 22.1875 30.1562C24.2188 30 26.0938 29.2188 27.5 27.6563C27.9688 27.0313 28.5938 26.5625 29.2188 25.9375C30.1563 25 31.4062 24.0625 32.5 23.125C33.4375 22.5 33.9062 22.5 35 23.125L37.5 24.6875L37.6562 25L30.1562 32.0312C28.2812 33.5938 27.9688 35.3125 27.9688 36.4062C28.125 37.8125 28.75 38.9062 29.375 39.5312C29.8437 40 30.1562 40.3125 30.3125 40.3125C31.0938 40.7812 32.0313 41.0937 33.125 41.0937C35.3125 41.0937 37.6563 40 37.8125 39.8438L38.125 39.6875L38.4375 39.375C39.0625 38.75 41.5625 36.7188 43.125 35.4688C44.375 34.5313 45.9375 33.9063 47.6562 33.9063C50.625 33.9063 54.5312 35.4688 58.5938 38.2812C63.5938 41.7188 68.75 45 73.75 47.9688C75.7812 49.2188 77.9688 50.625 80.1562 51.875C81.4062 53.75 81.7188 55.4688 80.9375 57.3438Z" fill="#324254"/>
<path d="M92.8134 46.0938C89.3759 47.1875 84.6884 47.8125 82.8134 51.25C75.1572 46.4062 67.3447 42.0312 60.0009 36.875C57.0322 34.8438 52.8134 32.5 48.9072 32.1875C46.5634 32.0313 44.2197 32.5 42.1884 34.0625C42.1884 34.0625 38.2822 37.1875 37.3447 38.125C37.3447 38.125 33.5947 39.8438 31.7197 38.5938C31.7197 38.5938 28.2822 36.4062 31.5634 33.5938L39.5322 26.0938L40.4697 25.3125C40.4697 25.3125 41.0947 24.375 43.4384 24.375L53.7509 24.0625C53.7509 24.0625 55.1572 23.5938 58.4384 24.375L72.3447 29.6875C74.0634 30.3125 76.7197 30 78.2822 29.2188C80.4697 27.9688 82.0322 26.0938 83.9072 24.375C84.2197 24.0625 84.5322 23.75 84.8447 23.5938C85.1572 23.2813 85.4697 22.9688 85.9384 22.9688C87.1884 22.9688 87.6572 24.375 87.9697 25.3125C88.2822 26.0938 88.5947 26.7188 88.9072 27.5C90.4697 31.0938 92.0322 34.6875 93.7509 38.2812L96.0947 43.4375C97.0322 45.625 94.3759 45.625 92.8134 46.0938Z" fill="#F38E30"/>
<path d="M9.84424 48.9067C9.53174 49.8442 8.59424 50.4692 7.50049 50.313L5.15674 49.688C4.21924 49.3755 3.59424 48.438 3.75049 47.3442L8.12549 29.3755C8.43799 28.438 9.37549 27.813 10.4692 27.9692L12.813 28.5942C13.7505 28.9067 14.3755 29.8442 14.2192 30.938L9.84424 48.9067Z" fill="#F38E30"/>
</svg>
