<svg width="100" height="100" viewBox="0 0 100 100" fill="none" xmlns="http://www.w3.org/2000/svg">
<path d="M69.5805 82.2557C69.2693 82.0829 68.9286 81.9696 68.5758 81.9216L50.3017 78.9759C50.2123 79.9855 49.8911 80.9608 49.3632 81.8261C48.5225 83.2282 47.1954 84.2723 45.6347 84.7594C44.074 85.2465 42.3887 85.1426 40.8996 84.4677C39.0314 83.6335 30.5417 79.8622 25.3975 77.5769L22.6863 76.3776C22.2681 76.1894 21.9407 75.8442 21.7749 75.4166C21.6091 74.989 21.6181 74.5133 21.8 74.0923C21.9872 73.6733 22.3329 73.3457 22.7613 73.1812C23.1897 73.0167 23.6658 73.0287 24.0854 73.2147C28.0652 74.97 40.0307 80.288 42.316 81.322C43.0381 81.6411 43.8515 81.6866 44.6046 81.4499C45.3577 81.2133 45.999 80.7107 46.4088 80.036C46.4522 79.9578 46.5043 79.8709 46.5478 79.784C46.8698 79.1111 46.9514 78.3482 46.7791 77.6224C46.6067 76.8966 46.1908 76.2518 45.6007 75.7955C43.4544 74.1619 37.8757 70.1734 33.8611 67.3058C31.6256 65.7034 29.8005 63.5954 28.5344 61.1536C27.0483 58.1172 24.7711 55.5376 21.9425 53.6863C19.1139 51.835 15.8385 50.7805 12.4612 50.6337C11.6824 50.5818 10.9057 50.7628 10.2301 51.1537C9.55452 51.5445 9.01053 52.1276 8.6674 52.8287L1.38862 67.6992C1.00435 68.5094 0.904371 69.4255 1.10482 70.2996C1.30526 71.1736 1.79444 71.9546 2.49337 72.5164L2.51788 72.537L16.1866 84.094C19.2772 86.7136 23.197 88.1516 27.2484 88.152H27.2745L68.0805 88.1433C68.5071 88.145 68.9295 88.0586 69.3212 87.8897C69.7129 87.7207 70.0656 87.4728 70.3572 87.1614C70.7455 86.7475 71.0155 86.2369 71.1389 85.683C71.2624 85.1291 71.2348 84.5521 71.0591 84.0125C70.8133 83.257 70.283 82.6268 69.5805 82.2557Z" fill="#324254"/>
<path d="M98.6145 67.6994L91.3356 52.8287C90.9925 52.1277 90.4485 51.5446 89.773 51.1538C89.0974 50.7629 88.3209 50.5819 87.5421 50.6337C84.1632 50.7791 80.8861 51.833 78.0558 53.6844C75.2256 55.5358 72.947 58.1162 71.4601 61.1538C70.1972 63.5951 68.375 65.7032 66.1421 67.306C62.4664 69.9216 57.4786 73.5017 55.0195 75.3351L66.8547 77.2382C70.4087 75.6566 74.0496 74.0404 75.9179 73.2149C76.1246 73.1212 76.3479 73.0698 76.5748 73.0638C76.8016 73.0579 77.0274 73.0974 77.2387 73.1802C77.5538 73.2995 77.8269 73.5086 78.0244 73.7815C78.2218 74.0545 78.3349 74.3793 78.3497 74.7159C78.3645 75.0525 78.2803 75.386 78.1076 75.6752C77.9348 75.9644 77.6811 76.1966 77.3777 76.3432L74.6752 77.551C73.8845 77.9073 73.0068 78.2896 72.0857 78.7067C73.0907 79.3434 73.9289 80.2111 74.5305 81.2374C75.1321 82.2637 75.4796 83.419 75.5442 84.6069V84.6243C75.6052 85.7866 75.3939 86.947 74.9272 88.0132C78.2057 87.5895 81.2923 86.2288 83.8166 84.0942L97.4853 72.5371L97.5182 72.5093C98.2137 71.9465 98.6999 71.1663 98.8987 70.294C99.0975 69.4217 98.9974 68.5079 98.6145 67.6994Z" fill="#324254"/>
<path d="M25.0368 42.5282C26.3848 51.4545 33.3641 68.3337 50.0037 68.3337C66.6133 68.3337 73.5777 51.5444 74.9556 42.603L77.0823 30.8759C77.1773 30.3729 77.1709 29.856 77.0635 29.3554C76.9562 28.8549 76.75 28.3808 76.4571 27.9609C76.1642 27.5411 75.7904 27.1839 75.3577 26.9104C74.925 26.6368 74.442 26.4524 73.9371 26.3678C73.4043 26.2828 72.8938 26.0919 72.4359 25.8063C71.9781 25.5208 71.582 25.1465 71.2712 24.7054C70.9612 24.2608 70.7421 23.7594 70.6265 23.23C70.5109 22.7006 70.5009 22.1535 70.5973 21.6202C70.774 20.6046 70.5425 19.5603 69.9532 18.7145C69.3526 17.8785 68.4502 17.3091 67.437 17.127C59.8736 15.8538 55.1858 13.7422 53.059 12.6189C52.1183 12.1102 51.0657 11.8437 49.9962 11.8438C48.9267 11.8437 47.8741 12.1102 46.9333 12.6189C44.8066 13.7422 40.1338 15.8538 32.5553 17.127C32.0534 17.2147 31.5737 17.4006 31.1438 17.6741C30.7138 17.9475 30.3421 18.3032 30.0499 18.7206C29.7577 19.138 29.5508 19.6091 29.441 20.1066C29.3312 20.6042 29.3208 21.1186 29.4102 21.6202C29.5055 22.1544 29.4937 22.7023 29.3754 23.2319C29.2572 23.7616 29.0348 24.2624 28.7212 24.7053C28.4149 25.1442 28.0239 25.5174 27.5712 25.8029C27.1185 26.0885 26.6133 26.2805 26.0852 26.3678C25.5789 26.4514 25.0942 26.635 24.6595 26.9077C24.2248 27.1805 23.8487 27.5371 23.5532 27.9567C23.2577 28.3763 23.0486 28.8505 22.9382 29.3517C22.8278 29.8528 22.8183 30.371 22.9101 30.8759L25.0368 42.5282ZM36.5421 37.1401C36.9462 36.736 37.4259 36.4154 37.9539 36.1967C38.4819 35.978 39.0478 35.8654 39.6193 35.8654C40.1908 35.8654 40.7567 35.978 41.2847 36.1967C41.8127 36.4154 42.2924 36.736 42.6965 37.1401L46.4543 40.8983L57.304 30.0483C57.7081 29.6442 58.1878 29.3236 58.7158 29.1049C59.2438 28.8862 59.8097 28.7736 60.3812 28.7736C60.9527 28.7736 61.5186 28.8862 62.0466 29.1049C62.5746 29.3236 63.0544 29.6442 63.4585 30.0483C63.8626 30.4524 64.1831 30.9321 64.4018 31.4601C64.6205 31.9881 64.7331 32.554 64.7331 33.1255C64.7331 33.697 64.6205 34.2629 64.4018 34.7909C64.1831 35.3189 63.8626 35.7986 63.4585 36.2028L49.5316 50.1295C48.7154 50.9456 47.6085 51.404 46.4543 51.404C45.3001 51.404 44.1932 50.9456 43.377 50.1295L36.5421 43.2946C36.1379 42.8905 35.8174 42.4108 35.5987 41.8828C35.3799 41.3548 35.2674 40.7889 35.2674 40.2174C35.2674 39.6459 35.3799 39.08 35.5987 38.552C35.8174 38.024 36.1379 37.5442 36.5421 37.1401Z" fill="#F38E30"/>
</svg>
