<svg width="36" height="37" viewBox="0 0 36 37" fill="none" xmlns="http://www.w3.org/2000/svg">
<g clip-path="url(#clip0_14875_19712)">
<path d="M18.002 22.5391C20.4872 22.5391 22.502 20.5243 22.502 18.0391C22.502 15.5538 20.4872 13.5391 18.002 13.5391C15.5167 13.5391 13.502 15.5538 13.502 18.0391C13.502 20.5243 15.5167 22.5391 18.002 22.5391Z" stroke="#F38E30" stroke-width="1.8" stroke-linecap="round" stroke-linejoin="round"/>
<path d="M18 30.0547C24.6274 30.0547 30 24.6821 30 18.0547C30 11.4273 24.6274 6.05469 18 6.05469C11.3726 6.05469 6 11.4273 6 18.0547C6 24.6821 11.3726 30.0547 18 30.0547Z" stroke="#F38E30" stroke-width="1.8" stroke-linecap="round" stroke-linejoin="round"/>
<path d="M18 3.03125V6.03125" stroke="#F38E30" stroke-width="1.8" stroke-linecap="round" stroke-linejoin="round"/>
<path d="M18 30.0312V33.0312" stroke="#F38E30" stroke-width="1.8" stroke-linecap="round" stroke-linejoin="round"/>
<path d="M30.0039 18.0469H33.0039" stroke="#F38E30" stroke-width="1.8" stroke-linecap="round" stroke-linejoin="round"/>
<path d="M3 18.0469H6" stroke="#F38E30" stroke-width="1.8" stroke-linecap="round" stroke-linejoin="round"/>
</g>
<defs>
<clipPath id="clip0_14875_19712">
<rect width="36" height="36" fill="white" transform="translate(0 0.046875)"/>
</clipPath>
</defs>
</svg>
