<svg width="200" height="68" viewBox="0 0 200 68" fill="none" xmlns="http://www.w3.org/2000/svg">
<path d="M200.002 33.0955V40.9719C198.909 41.5171 197.841 41.926 196.802 42.1986C195.763 42.4761 194.754 42.6124 193.779 42.6124C191.294 42.6124 189.236 41.7995 187.599 40.1735C185.962 38.5428 185.144 36.4885 185.144 34.0107C185.144 31.5329 185.972 29.4348 187.633 27.7991C189.294 26.1586 191.397 25.3408 193.94 25.3408C194.901 25.3408 195.812 25.4722 196.685 25.7351C197.552 25.9931 198.39 26.3923 199.194 26.918L198.777 30.9731C198.022 30.2137 197.268 29.6587 196.518 29.3082C195.763 28.9528 194.979 28.7776 194.151 28.7776C192.686 28.7776 191.48 29.2595 190.52 30.2331C189.559 31.2067 189.079 32.4237 189.079 33.8792C189.079 35.4175 189.544 36.6686 190.471 37.6373C191.397 38.6109 192.588 39.0929 194.048 39.0929C194.386 39.0929 194.729 39.0636 195.072 39.0052C195.42 38.9419 195.773 38.8592 196.15 38.7472V36.396H193.063V33.1004H199.997L200.002 33.0955ZM168.31 42.0867V25.3603H168.683L178.837 34.8139V25.886H182.429V42.7049H182.091L171.902 33.2513V42.0867H168.31ZM160.616 42.0867V25.886H164.507V42.0867H160.616ZM144.88 42.0867V25.886H148.727V32.9397L154.113 25.886H158.749L152.599 33.592L159.234 42.0867H154.534L148.727 34.624V42.0867H144.88ZM131.453 37.5108C132.452 38.1193 133.305 38.5428 134.011 38.791C134.711 39.0344 135.393 39.1561 136.059 39.1561C136.726 39.1561 137.274 39.0052 137.681 38.7132C138.088 38.4211 138.294 38.0414 138.294 37.5789C138.294 36.9169 137.569 36.1721 136.113 35.3494C135.878 35.2179 135.696 35.1108 135.569 35.0378L134.466 34.4196C133.393 33.816 132.599 33.1344 132.085 32.375C131.565 31.6156 131.31 30.754 131.31 29.795C131.31 28.4904 131.805 27.4243 132.795 26.587C133.78 25.7497 135.059 25.3359 136.628 25.3359C137.206 25.3359 137.833 25.4041 138.505 25.5404C139.181 25.6718 139.931 25.8812 140.754 26.1635V29.9605C139.965 29.4737 139.22 29.094 138.514 28.8263C137.809 28.5585 137.211 28.4271 136.716 28.4271C136.167 28.4271 135.736 28.5439 135.422 28.7776C135.108 29.0113 134.952 29.3325 134.952 29.7317C134.952 30.0141 135.045 30.2769 135.231 30.5203C135.417 30.7686 135.701 30.9877 136.074 31.1921L137.985 32.2387C139.588 33.1198 140.661 33.9328 141.215 34.6776C141.768 35.4273 142.043 36.3084 142.043 37.3258C142.043 38.903 141.504 40.1833 140.421 41.1569C139.333 42.1305 137.897 42.6124 136.103 42.6124C135.496 42.6124 134.834 42.5491 134.123 42.4226C133.413 42.296 132.624 42.0964 131.776 41.8335L131.448 37.5108H131.453ZM119.088 42.0867V25.886H129.13V29.2255H122.862V32.156H128.228V35.4759H122.862V38.6791H129.218V42.0867H119.083H119.088ZM104.411 42.0867V25.886H108.601C109.944 25.886 110.988 25.9736 111.728 26.1489C112.468 26.3241 113.119 26.6162 113.693 27.0251C114.3 27.4584 114.771 27.989 115.104 28.6267C115.437 29.2644 115.604 29.9362 115.604 30.642C115.604 31.6643 115.344 32.5552 114.82 33.3243C114.296 34.0886 113.546 34.6873 112.561 35.1254L117.535 42.0867H113.09L108.738 35.7242H108.184V42.0867H104.406H104.411ZM108.831 28.836H108.189V33.3194H109.013C109.998 33.3194 110.743 33.1198 111.262 32.7304C111.782 32.3361 112.036 31.7714 112.036 31.0315C112.036 30.2575 111.786 29.7025 111.282 29.352C110.777 29.0064 109.958 28.8311 108.826 28.8311L108.831 28.836ZM91.3117 42.0867V25.886H101.353V29.2255H95.0851V32.156H100.451V35.4759H95.0851V38.6791H101.441V42.0867H91.3068H91.3117ZM82.3043 42.7049H82.0348L74.3359 25.886H78.4574L82.3043 34.7457L86.1856 25.886H90.0032L82.3043 42.7049Z" fill="white"/>
<path d="M53.8619 58.8619C55.3011 57.4378 56.6022 55.8771 57.7408 54.1994C53.9408 52.8143 50.5302 50.8782 47.7258 47.9861C44.5025 44.6648 42.324 40.5778 41.2841 36.2031L37.2919 43.1773C38.7606 46.4498 40.8011 49.4882 43.3689 52.1364C44.7834 53.5947 46.331 54.9066 48.0018 56.0527C38.5339 63.973 24.5662 63.973 15.0983 56.0527C16.7642 54.9066 18.3167 53.5898 19.7312 52.1364C22.2153 49.576 24.2064 46.6498 25.6604 43.4943L21.7175 36.5982C20.643 40.8266 18.4991 44.7672 15.3743 47.9909C12.5699 50.883 9.16427 52.8143 5.35938 54.2043C6.49789 55.882 7.79904 57.4427 9.2382 58.8668C21.54 71.0399 41.5552 71.0399 53.857 58.8668" fill="white"/>
<path d="M12.3561 20.1889C8.4378 24.6172 6.0622 30.416 6.0622 36.7611C6.0622 40.6237 6.9395 44.2815 8.51173 47.554C8.06815 47.8271 7.61472 48.0856 7.15636 48.3343C5.83549 49.0415 4.45547 49.6316 3.02617 50.1047C1.0843 46.0616 0 41.5357 0 36.7611C0 28.1579 3.52396 20.3644 9.22638 14.7266L12.3561 20.1889Z" fill="white"/>
<path d="M12.7969 11.7586C14.448 10.5491 16.1927 9.51999 18.0015 8.67139L31.4172 31.4423L44.5027 9.11032C46.4544 5.7793 51.3387 2.45803 56.7109 0L31.3778 44.2592L12.7969 11.7586Z" fill="#FF2A2A"/>
<path d="M37.375 12.3235C33.4518 11.4212 29.3562 11.4407 25.4428 12.3917L25.0338 11.6797C24.1367 10.119 23.2397 8.56326 22.3477 7.01236C28.2423 5.24687 34.5559 5.21273 40.4653 6.92457L37.375 12.3235Z" fill="white"/>
<path d="M53.861 14.7908C59.5584 20.4286 63.0873 28.2222 63.0873 36.8253C63.0873 41.5999 62.003 46.1258 60.0612 50.1689C58.6319 49.6958 57.2518 49.1008 55.931 48.3985C55.4726 48.1546 55.0192 47.8913 54.5756 47.6182C56.1478 44.3457 57.0251 40.6879 57.0251 36.8253C57.0251 30.3729 54.5707 24.4912 50.5391 20.0336L53.6589 14.5859C53.7279 14.6542 53.7969 14.7176 53.8659 14.7859" fill="white"/>
</svg>
