<svg width="100" height="100" viewBox="0 0 100 100" fill="none" xmlns="http://www.w3.org/2000/svg">
<path d="M57.5969 55.0383H34.2531C33.5018 52.5658 32.1529 50.3164 30.3257 48.4892C28.4984 46.6619 26.2491 45.313 23.7766 44.5617V28.6789C26.2491 27.9276 28.4984 26.5787 30.3257 24.7514C32.1529 22.9242 33.5018 20.6749 34.2531 18.2023H83.2156C83.9669 20.6749 85.3158 22.9242 87.1431 24.7514C88.9704 26.5787 91.2197 27.9276 93.6922 28.6789V48.3781C93.6924 48.4746 93.714 48.5699 93.7554 48.6571C93.7969 48.7442 93.8572 48.821 93.932 48.882C95.081 49.8257 96.1383 50.8756 97.0899 52.018C97.1781 52.1208 97.2957 52.1942 97.4269 52.228C97.5581 52.2618 97.6966 52.2546 97.8235 52.2072C97.9505 52.1598 98.0599 52.0746 98.1368 51.9631C98.2138 51.8516 98.2547 51.7191 98.2539 51.5836V17.3047C98.2546 16.8238 98.1606 16.3476 97.9771 15.9031C97.7936 15.4586 97.5243 15.0547 97.1845 14.7144C96.8448 14.3741 96.4414 14.1041 95.9972 13.9199C95.5531 13.7356 95.077 13.6407 94.5961 13.6406H22.8789C21.9071 13.6406 20.9752 14.0267 20.288 14.7138C19.6009 15.4009 19.2148 16.3329 19.2148 17.3047V55.9359C19.2148 56.4171 19.3096 56.8936 19.4938 57.3381C19.6779 57.7827 19.9478 58.1866 20.288 58.5268C20.6283 58.8671 21.0322 59.137 21.4767 59.3211C21.9213 59.5052 22.3977 59.6 22.8789 59.6H56.1617C56.2972 59.5996 56.4291 59.5572 56.5395 59.4787C56.6499 59.4003 56.7333 59.2895 56.7781 59.1617C57.169 58.0746 57.6384 57.0174 58.1828 55.9984C58.2352 55.8981 58.2608 55.7859 58.2571 55.6727C58.2533 55.5596 58.2203 55.4493 58.1614 55.3527C58.1024 55.256 58.0194 55.1763 57.9205 55.1212C57.8216 55.0661 57.7101 55.0375 57.5969 55.0383Z" fill="#324254"/>
<path d="M13.6492 68.4695H54.7602C54.849 68.4691 54.9369 68.4508 55.0185 68.4157C55.1001 68.3806 55.1739 68.3295 55.2354 68.2654C55.2969 68.2012 55.3449 68.1254 55.3765 68.0424C55.4082 67.9594 55.4228 67.8708 55.4195 67.782C55.4128 67.5508 55.4094 67.318 55.4094 67.0836C55.4091 66.2684 55.4519 65.4537 55.5375 64.643C55.5485 64.5509 55.5399 64.4576 55.5123 64.3691C55.4846 64.2806 55.4386 64.199 55.3771 64.1296C55.3156 64.0602 55.2401 64.0047 55.1556 63.9666C55.0711 63.9285 54.9794 63.9087 54.8867 63.9086H14.9102V24.7891C14.9102 24.184 14.6698 23.6038 14.242 23.176C13.8142 22.7482 13.2339 22.5078 12.6289 22.5078C12.0239 22.5078 11.4436 22.7482 11.0158 23.176C10.588 23.6038 10.3477 24.184 10.3477 24.7891V65.1695C10.3477 65.6031 10.4331 66.0323 10.599 66.4329C10.7649 66.8334 11.0081 67.1973 11.3147 67.5038C11.6213 67.8103 11.9853 68.0534 12.3858 68.2193C12.7864 68.3851 13.2157 68.4696 13.6492 68.4695Z" fill="#324254"/>
<path d="M56.1641 73.0051C56.1289 72.8632 56.0474 72.7372 55.9325 72.6469C55.8176 72.5566 55.6758 72.5072 55.5297 72.5066H6.30781V33.5113C6.31958 32.9128 6.10352 32.3321 5.70334 31.8868C5.30316 31.4415 4.74876 31.1649 4.15234 31.1129C3.84302 31.0957 3.53344 31.1417 3.2425 31.2482C2.95156 31.3546 2.68537 31.5192 2.46018 31.732C2.23499 31.9448 2.05553 32.2012 1.93275 32.4856C1.80998 32.7701 1.74647 33.0765 1.74609 33.3863V73.7676C1.74609 74.643 2.09385 75.4826 2.71287 76.1016C3.33189 76.7206 4.17145 77.0684 5.04688 77.0684H56.6172C56.7252 77.0691 56.8317 77.0432 56.9273 76.9929C57.0229 76.9427 57.1047 76.8696 57.1653 76.7802C57.2259 76.6909 57.2636 76.5879 57.275 76.4805C57.2863 76.3731 57.2711 76.2645 57.2305 76.1645C56.7983 75.1388 56.4419 74.0828 56.1641 73.0051Z" fill="#324254"/>
<path d="M82.4642 41.8281C85.3403 41.3614 87.2935 38.6515 86.8268 35.7754C86.3601 32.8993 83.6502 30.9461 80.7741 31.4128C77.898 31.8795 75.9447 34.5894 76.4114 37.4655C76.8782 40.3416 79.588 42.2948 82.4642 41.8281Z" fill="#F38E30"/>
<path d="M39.5822 40.3555C41.6426 38.2952 41.6426 34.9548 39.5822 32.8945C37.5219 30.8341 34.1815 30.8341 32.1212 32.8945C30.0608 34.9548 30.0608 38.2952 32.1212 40.3555C34.1815 42.4159 37.5219 42.4159 39.5822 40.3555Z" fill="#F38E30"/>
<path d="M58.7359 45.6922C64.7364 45.6922 69.6008 41.632 69.6008 36.6234C69.6008 31.6149 64.7364 27.5547 58.7359 27.5547C52.7355 27.5547 47.8711 31.6149 47.8711 36.6234C47.8711 41.632 52.7355 45.6922 58.7359 45.6922Z" fill="#F38E30"/>
<path d="M78.6145 47.2656C74.6936 47.2654 70.8608 48.4221 67.6006 50.5895C64.3403 52.7569 61.7992 55.8376 60.2986 59.442C58.7979 63.0465 58.4051 67.0128 59.1697 70.8394C59.9344 74.6661 61.8223 78.1811 64.5946 80.9401C67.3669 83.6991 70.8991 85.5781 74.7446 86.3395C78.59 87.1009 82.576 86.7105 86.1985 85.2176C89.821 83.7248 92.9173 81.1966 95.0958 77.9527C97.2743 74.7088 98.4373 70.895 98.4375 66.9934C98.432 61.7634 96.3418 56.7491 92.6255 53.0507C88.9092 49.3523 83.8704 47.2718 78.6145 47.2656ZM66.1311 66.9934C66.1349 63.7001 67.4514 60.5428 69.7916 58.214C72.1319 55.8853 75.3049 54.5754 78.6145 54.5715C80.6405 54.5857 82.6317 55.0967 84.4119 56.0594L67.6268 72.7625C66.659 70.9911 66.1453 69.0096 66.1311 66.9934ZM78.6145 79.4129C76.5885 79.3988 74.5973 78.888 72.817 77.9257L89.6023 61.2238C90.5699 62.9954 91.0836 64.9771 91.0979 66.9934C91.094 70.2865 89.7774 73.4435 87.4371 75.7719C85.0968 78.1002 81.9239 79.4096 78.6145 79.4129Z" fill="#F38E30"/>
</svg>
