<svg width="31" height="30" viewBox="0 0 31 30" fill="none" xmlns="http://www.w3.org/2000/svg">
<path d="M14.1953 1.7013C14.8479 0.379011 16.7335 0.379008 17.3861 1.70129L20.6053 8.22423C20.8645 8.74931 21.3654 9.11325 21.9448 9.19746L29.1433 10.2435C30.6026 10.4555 31.1852 12.2487 30.1293 13.278L24.9204 18.3554C24.5011 18.7641 24.3098 19.353 24.4088 19.9301L25.6384 27.0995C25.8877 28.5528 24.3623 29.6611 23.0571 28.975L16.6186 25.59C16.1003 25.3176 15.4811 25.3176 14.9628 25.59L8.5243 28.975C7.21913 29.6611 5.69369 28.5528 5.94296 27.0995L7.17261 19.9301C7.27159 19.353 7.08026 18.7641 6.66095 18.3554L1.45208 13.278C0.396173 12.2487 0.978835 10.4555 2.43806 10.2435L9.63655 9.19746C10.216 9.11325 10.7169 8.74931 10.9761 8.22423L14.1953 1.7013Z" fill="#F38E30"/>
</svg>
