<svg width="24" height="24" viewBox="0 0 24 24" fill="none" xmlns="http://www.w3.org/2000/svg">
<path d="M23.4569 5.78669C23.1869 6.63569 22.8229 7.37469 22.3669 8.04569L22.3859 8.01569C21.9379 8.76235 21.4029 9.62502 20.7809 10.6037C20.2476 11.3764 19.9652 11.7764 19.9339 11.8037C19.7959 11.9767 19.6999 12.1887 19.6669 12.4217L19.6659 12.4287C19.6929 12.6407 19.7909 12.8257 19.9339 12.9637L20.3339 13.4097C22.4739 15.609 23.6776 17.125 23.9449 17.9577C23.9799 18.0497 23.9999 18.1557 23.9999 18.2667C23.9999 18.4607 23.9379 18.6397 23.8329 18.7867L23.8349 18.7837C23.6589 18.9647 23.4129 19.0767 23.1409 19.0767C23.1109 19.0767 23.0799 19.0757 23.0509 19.0727H23.0549H20.4239C20.4229 19.0727 20.4209 19.0727 20.4189 19.0727C20.0819 19.0727 19.7719 18.9547 19.5289 18.7587L19.5319 18.7607C19.1779 18.4697 18.8629 18.1547 18.5809 17.8127L18.5719 17.8007C18.1112 17.28 17.7026 16.8417 17.3459 16.4857C16.1579 15.3564 15.2812 14.7917 14.7159 14.7917C14.6949 14.7897 14.6709 14.7887 14.6459 14.7887C14.4809 14.7887 14.3269 14.8397 14.1999 14.9267L14.2029 14.9247C14.0989 15.0547 14.0359 15.2227 14.0359 15.4037C14.0359 15.4397 14.0379 15.4737 14.0429 15.5087V15.5047C14.0159 15.8187 13.9999 16.1837 13.9999 16.5527C13.9999 16.6717 14.0019 16.7897 14.0049 16.9077V16.8907V18.0497C14.0149 18.0967 14.0209 18.1507 14.0209 18.2057C14.0209 18.4477 13.9109 18.6637 13.7389 18.8067L13.7379 18.8077C13.3509 18.9847 12.8989 19.0887 12.4219 19.0887C12.3199 19.0887 12.2199 19.0837 12.1209 19.0747L12.1339 19.0757C10.5599 19.0457 9.09991 18.5847 7.85891 17.8077L7.89391 17.8277C6.38291 16.9097 5.13091 15.7147 4.17691 14.3027L4.14991 14.2607C3.24391 13.0587 2.39891 11.7007 1.67891 10.2687L1.60891 10.1147C1.18791 9.31269 0.751906 8.32669 0.375906 7.31269L0.315906 7.12769C0.162906 6.67169 0.0519063 6.14169 0.00590625 5.59269L0.00390625 5.56769C0.00390625 5.06235 0.30124 4.80969 0.895906 4.80969H3.52591C3.54991 4.80769 3.57791 4.80669 3.60691 4.80669C3.85491 4.80669 4.08391 4.89169 4.26491 5.03469L4.26291 5.03269C4.46291 5.25169 4.61091 5.52069 4.68391 5.82069L4.68691 5.83269C5.17091 7.19969 5.68391 8.34769 6.27391 9.44769L6.20691 9.31069C6.68891 10.2807 7.22191 11.1157 7.82991 11.8867L7.80691 11.8557C8.34024 12.5104 8.75624 12.8377 9.05491 12.8377C9.06391 12.8387 9.07491 12.8387 9.08691 12.8387C9.23491 12.8387 9.36391 12.7587 9.43391 12.6387L9.43491 12.6367C9.50891 12.4467 9.55191 12.2257 9.55191 11.9957C9.55191 11.9467 9.54991 11.8977 9.54591 11.8497V11.8557V7.97669C9.52491 7.51969 9.41291 7.09269 9.22591 6.70969L9.23391 6.72869C9.10991 6.46469 8.96091 6.23669 8.78391 6.03369L8.78691 6.03769C8.62291 5.87369 8.51091 5.65869 8.47591 5.41869L8.47491 5.41269C8.47491 5.24269 8.55291 5.08969 8.67491 4.98969L8.67591 4.98869C8.79691 4.87769 8.95891 4.81069 9.13591 4.81069H9.14391H13.2899C13.3119 4.80769 13.3369 4.80669 13.3629 4.80669C13.5579 4.80669 13.7329 4.89469 13.8489 5.03269L13.8499 5.03369C13.9529 5.22169 14.0139 5.44669 14.0139 5.68469C14.0139 5.72269 14.0119 5.75969 14.0089 5.79669V5.79169V10.9647C14.0069 10.9887 14.0059 11.0167 14.0059 11.0447C14.0059 11.2287 14.0569 11.4017 14.1449 11.5487L14.1429 11.5447C14.2159 11.6527 14.3379 11.7227 14.4759 11.7227C14.6519 11.7107 14.8129 11.6527 14.9479 11.5607L14.9449 11.5627C15.2169 11.3757 15.4509 11.1627 15.6539 10.9217L15.6579 10.9167C16.2649 10.2307 16.8249 9.47269 17.3129 8.66669L17.3519 8.59669C17.6959 8.02669 18.0679 7.32469 18.4049 6.60369L18.4669 6.45669L18.9129 5.56469C19.0679 5.11869 19.4839 4.80469 19.9729 4.80469C19.9919 4.80469 20.0109 4.80469 20.0299 4.80569H20.0269H22.6579C23.3686 4.80569 23.6352 5.13269 23.4579 5.78669H23.4569Z" fill="#A4B3C6"/>
</svg>
