<svg width="21" height="21" viewBox="0 0 21 21" fill="none" xmlns="http://www.w3.org/2000/svg">
<path d="M4.8 19.3002L5.2 19.5002C6.8 20.5002 8.6 21.0002 10.5 21.0002C16.3 21.0002 20.9 16.3002 21 10.6002C21 7.8002 19.9 5.2002 17.9 3.2002C15.9 1.2002 13.3 0.1002 10.5 0.1002C4.7 0.000199519 0.1 4.7002 0 10.5002C0 12.5002 0.6 14.4002 1.6 16.1002L1.8 16.5002L0.7 20.4002L4.8 19.3002ZM5.2 5.1002C5.5 4.8002 5.8 4.7002 6 4.7002C6.2 4.7002 6.4 4.7002 6.6 4.7002C6.8 4.7002 7.1 4.6002 7.3 5.2002C7.6 5.8002 8.2 7.4002 8.3 7.5002C8.4 7.7002 8.4 7.8002 8.3 8.1002C8.2 8.3002 8.1 8.4002 8 8.6002C7.8 8.8002 7.7 9.0002 7.5 9.2002C7.3 9.4002 7.2 9.5002 7.4 9.8002C7.6 10.1002 8.2 11.1002 9.1 12.0002C10.3 13.1002 11.3 13.4002 11.6 13.6002C11.9 13.8002 12.1 13.7002 12.3 13.5002C12.5 13.3002 13.1 12.6002 13.3 12.3002C13.5 12.0002 13.7 12.0002 14 12.1002C14.3 12.2002 15.8 13.0002 16.1 13.1002C16.4 13.3002 16.6 13.3002 16.7 13.5002C16.8 13.6002 16.8 14.3002 16.5 15.0002C16.2 15.7002 15 16.4002 14.4 16.5002C13.9 16.6002 13.2 16.6002 12.4 16.4002C11.9 16.3002 11.4 16.1002 10.6 15.7002C7.4 14.3002 5.4 11.2002 5.2 11.0002C5 10.8002 3.9 9.3002 3.9 7.8002C4.1 6.2002 4.9 5.4002 5.2 5.1002Z" fill="url(#paint0_linear_194_13)"/>
<defs>
<linearGradient id="paint0_linear_194_13" x1="1.2095" y1="20.9285" x2="15.9782" y2="4.3514" gradientUnits="userSpaceOnUse">
<stop stop-color="#31BF2F"/>
<stop offset="1" stop-color="#5DF876"/>
</linearGradient>
</defs>
</svg>
